#Produced by Art of Illusion 3.2.1, Sun Dec 14 09:39:11 EET 2025
s 0
g Cube_1
v -1.945 -1.21 0.745
v -0.455 -1.21 0.745
v -0.455 -1.21 -0.745
v -1.945 -1.21 -0.745
v -1.945 0.33 0.745
v -0.455 0.33 0.745
v -0.455 0.33 -0.745
v -1.945 0.33 -0.745
v -1.2 -0.44 0.745
v -0.455 -0.44 0
v -1.2 -0.44 -0.745
v -1.945 -0.44 0
v -1.2 -1.21 0
v -1.2 0.33 0
f 2 1 13
f 3 2 13
f 4 3 13
f 1 4 13
f 2 3 10
f 3 7 10
f 7 6 10
f 6 2 10
f 1 2 9
f 2 6 9
f 6 5 9
f 5 1 9
f 4 1 12
f 1 5 12
f 5 8 12
f 8 4 12
f 5 6 14
f 6 7 14
f 7 8 14
f 8 5 14
f 3 4 11
f 4 8 11
f 8 7 11
f 7 3 11
s 0
g Cube_2
v -1.365 -1.21 0.505
v 1.085 -1.21 0.505
v 1.085 -1.21 -0.505
v -1.365 -1.21 -0.505
v -1.365 -0.2 0.505
v 1.085 -0.2 0.505
v 1.085 -0.2 -0.505
v -1.365 -0.2 -0.505
v -0.14 -0.705 0.505
v 1.085 -0.705 0
v -0.14 -0.705 -0.505
v -1.365 -0.705 0
v -0.14 -1.21 0
v -0.14 -0.2 0
f 16 15 27
f 17 16 27
f 18 17 27
f 15 18 27
f 16 17 24
f 17 21 24
f 21 20 24
f 20 16 24
f 15 16 23
f 16 20 23
f 20 19 23
f 19 15 23
f 18 15 26
f 15 19 26
f 19 22 26
f 22 18 26
f 19 20 28
f 20 21 28
f 21 22 28
f 22 19 28
f 17 18 25
f 18 22 25
f 22 21 25
f 21 17 25
s 0
g Cube_3
v 0.345 -1.21 0.68
v 1.705 -1.21 0.68
v 1.705 -1.21 -0.68
v 0.345 -1.21 -0.68
v 0.345 0.59 0.68
v 1.705 0.59 0.68
v 1.705 0.59 -0.68
v 0.345 0.59 -0.68
v 1.025 -0.31 0.68
v 1.705 -0.31 0
v 1.025 -0.31 -0.68
v 0.345 -0.31 0
v 1.025 -1.21 0
v 1.025 0.59 0
f 30 29 41
f 31 30 41
f 32 31 41
f 29 32 41
f 30 31 38
f 31 35 38
f 35 34 38
f 34 30 38
f 29 30 37
f 30 34 37
f 34 33 37
f 33 29 37
f 32 29 40
f 29 33 40
f 33 36 40
f 36 32 40
f 33 34 42
f 34 35 42
f 35 36 42
f 36 33 42
f 31 32 39
f 32 36 39
f 36 35 39
f 35 31 39
g Cone_2
v -1.17369 0.31013 0.01572
v -0.67369 0.31013 0.01572
v -0.82014 0.31013 -0.33783
v -1.17369 0.31013 -0.48428
v -1.52725 0.31013 -0.33783
v -1.67369 0.31013 0.01572
v -1.52725 0.31013 0.36928
v -1.17369 0.31013 0.51572
v -0.82014 0.31013 0.36928
v -1.17369 1.31013 0.01572
vn 0 -1 0
vn 0 -1 0
vn 0.89443 0.44721 0
vn 0 -1 0
vn 0.63246 0.44721 -0.63246
vn 0 -1 0
vn 0 0.44721 -0.89443
vn 0 -1 0
vn -0.63246 0.44721 -0.63246
vn 0 -1 0
vn -0.89443 0.44721 -0
vn 0 -1 0
vn -0.63246 0.44721 0.63246
vn 0 -1 0
vn -0 0.44721 0.89443
vn 0 -1 0
vn 0.63246 0.44721 0.63246
vn 0 1 0
f 45//4 44//2 43//1
f 46//6 45//4 43//1
f 47//8 46//6 43//1
f 48//10 47//8 43//1
f 49//12 48//10 43//1
f 50//14 49//12 43//1
f 51//16 50//14 43//1
f 44//2 51//16 43//1
f 52//18 44//3 45//5
f 52//18 45//5 46//7
f 52//18 46//7 47//9
f 52//18 47//9 48//11
f 52//18 48//11 49//13
f 52//18 49//13 50//15
f 52//18 50//15 51//17
f 52//18 51//17 44//3
g Cone_3
v 0.93863 0.59785 -0.02882
v 1.43863 0.59785 -0.02882
v 1.29219 0.59785 -0.38238
v 0.93863 0.59785 -0.52882
v 0.58508 0.59785 -0.38238
v 0.43863 0.59785 -0.02882
v 0.58508 0.59785 0.32473
v 0.93863 0.59785 0.47118
v 1.29219 0.59785 0.32473
v 0.93863 1.59785 -0.02882
vn 0 -1 0
vn 0 -1 0
vn 0.89443 0.44721 0
vn 0 -1 0
vn 0.63246 0.44721 -0.63246
vn 0 -1 0
vn 0 0.44721 -0.89443
vn 0 -1 0
vn -0.63246 0.44721 -0.63246
vn 0 -1 0
vn -0.89443 0.44721 -0
vn 0 -1 0
vn -0.63246 0.44721 0.63246
vn 0 -1 0
vn -0 0.44721 0.89443
vn 0 -1 0
vn 0.63246 0.44721 0.63246
vn 0 1 0
f 55//22 54//20 53//19
f 56//24 55//22 53//19
f 57//26 56//24 53//19
f 58//28 57//26 53//19
f 59//30 58//28 53//19
f 60//32 59//30 53//19
f 61//34 60//32 53//19
f 54//20 61//34 53//19
f 62//36 54//21 55//23
f 62//36 55//23 56//25
f 62//36 56//25 57//27
f 62//36 57//27 58//29
f 62//36 58//29 59//31
f 62//36 59//31 60//33
f 62//36 60//33 61//35
f 62//36 61//35 54//21
